:SAMPLES-PER-SECOND 30
:FRAME-RANGE 1-1700
:FULLY-SPECIFIED
:DEGREES
1169
root  -61.9528 35.8122 77.4779 -3.13989 72.6021 8.76367
RightUpLeg  -3.11832 -3.93732 -1.67019
RightLeg  46.6426 1.9081 1.83933
RightFoot  -32.2192 0.248815 2.54114
RightToes  6.35937e-011 1.2921e-014 -6.02303e-014
Spine  18.0869 1.76164 1.89549
Spine1  -0.526488 0.587444 0.966399
HEad  -12.641 27.6953 -21.2541
LeftShoulder1  3.04526 -10.4472 -15.5978
LeftArm  32.407 -41.315 -86.5092
LeftForeArm  69.9042 3.20868 -15.9279
LeftHand  -0.241648 12.518 -2.70239
RightShoulder  3.83371 9.33924 24.3054
RightArm  -13.977 35.8023 70.1239
RightForeArm  95.6045 -4.13915 3.20644
RightHand  0.549245 -9.5848 -15.8048
LeftUpLeg  -93.7397 11.0496 -50.6798
LeftLeg  108.688 -4.24383 10.3395
LeftFoot  -31.5302 -0.312274 -2.82153
LeftToes  -1.9349e-011 5.45182e-011 1.33515e-010
1170
root  -60.6006 37.2154 77.8526 -0.210266 72.419 11.2527
RightUpLeg  0.732687 -2.87891 -2.90888
RightLeg  41.141 2.88295 2.4104
RightFoot  -25.5723 0.512427 5.49274
RightToes  6.35937e-011 1.2921e-014 -6.02303e-014
Spine  16.6098 2.53055 2.70485
Spine1  -1.676 1.67128 -0.607534
HEad  -9.97166 29.2445 -19.9531
LeftShoulder1  2.85331 -9.78992 -15.2124
LeftArm  32.1061 -40.8171 -86.1008
LeftForeArm  69.0152 3.30186 -15.922
LeftHand  -0.246179 12.2345 -2.91244
RightShoulder  3.89325 9.46501 24.4824
RightArm  -14.5638 34.7549 70.857
RightForeArm  95.4149 -4.09528 2.89057
RightHand  0.532413 -9.4642 -15.7899
LeftUpLeg  -97.2791 11.4375 -50.717
LeftLeg  109.864 -4.14258 9.48963
LeftFoot  -31.9473 -0.289429 -2.65179
LeftToes  -1.9349e-011 5.45182e-011 1.33515e-010
1171
root  -59.2444 38.6851 78.1404 3.47086 72.493 14.6834
RightUpLeg  2.69894 -1.36633 -4.2629
RightLeg  38.4089 3.20411 2.45003
RightFoot  -16.3044 0.274133 8.86612
RightToes  6.35937e-011 1.2921e-014 -6.02303e-014
Spine  15.0622 2.80611 2.90232
Spine1  -2.51596 2.09514 -1.61709
HEad  -6.32202 31.508 -17.7236
LeftShoulder1  2.6612 -9.0755 -14.8919
LeftArm  31.4952 -40.2978 -84.9651
LeftForeArm  67.3735 3.39876 -15.9438
LeftHand  -0.237651 11.9285 -2.93109
RightShoulder  4.05288 9.88389 24.7381
RightArm  -16.3057 34.1586 72.2954
RightForeArm  96.6656 -3.76552 1.27688
RightHand  0.604362 -9.92607 -16.0223
LeftUpLeg  -99.8315 11.7826 -51.0157
LeftLeg  110.53 -3.59372 7.88763
LeftFoot  -32.5131 -0.339689 -2.8669
LeftToes  -1.9349e-011 5.45182e-011 1.33515e-010
1172
root  -57.9732 39.9488 78.3459 5.75336 74.0498 17.2063
RightUpLeg  2.14518 0.248569 -4.49692
RightLeg  40.3324 1.71407 1.27324
RightFoot  -6.15772 -0.479261 9.6376
RightToes  6.35937e-011 1.2921e-014 -6.02303e-014
Spine  14.3762 2.6764 3.05025
Spine1  -3.04856 1.91252 -1.28269
HEad  -3.43513 32.4754 -17.1327
LeftShoulder1  2.62378 -8.96341 -14.773
LeftArm  30.1794 -40.3091 -84.6702
LeftForeArm  66.7597 3.64193 -15.8604
LeftHand  -0.218713 11.6153 -2.7697
RightShoulder  4.08119 9.89418 24.9384
RightArm  -17.36 34.2042 72.759
RightForeArm  97.6241 -3.54619 0.249565
RightHand  0.644246 -10.2494 -15.9229
LeftUpLeg  -100.165 11.5949 -50.8028
LeftLeg  110.442 -2.55834 5.45096
LeftFoot  -32.7224 -0.407965 -3.20652
LeftToes  -1.9349e-011 5.45182e-011 1.33515e-010
1173
root  -56.9268 40.6606 78.4721 9.70721 76.3317 21.8347
RightUpLeg  0.209794 2.05164 -4.24049
RightLeg  44.7201 0.154047 -0.152034
RightFoot  -3.11185 -0.505155 6.71851
RightToes  6.35937e-011 1.2921e-014 -6.02303e-014
Spine  15.244 2.514 2.59699
Spine1  -3.34832 1.64234 -0.674834
HEad  -3.10713 32.4393 -16.8897
LeftShoulder1  2.74688 -9.6245 -14.616
LeftArm  26.7735 -40.2894 -84.9176
LeftForeArm  68.807 4.30283 -15.4338
LeftHand  -0.201398 11.4607 -2.53813
RightShoulder  3.97185 9.64222 24.6826
RightArm  -17.0809 34.3214 72.2719
RightForeArm  97.1098 -3.6266 0.580364
RightHand  0.641767 -10.2154 -15.9715
LeftUpLeg  -99.2208 10.8261 -51.297
LeftLeg  109.328 -1.91072 4.12513
LeftFoot  -32.5752 -0.500578 -3.71809
LeftToes  -1.9349e-011 5.45182e-011 1.33515e-010
1174
root  -55.9938 40.9689 78.5832 17.5725 78.6281 29.7352
RightUpLeg  -1.3815 4.49846 -4.38696
RightLeg  44.0853 1.16939 0.904944
RightFoot  -7.74187 -0.256084 6.4658
RightToes  6.35937e-011 1.2921e-014 -6.02303e-014
Spine  16.1435 2.30477 1.65466
Spine1  -3.03218 1.25719 0.100707
HEad  -5.26899 31.8602 -18.3537
LeftShoulder1  2.79699 -9.71102 -14.8832
LeftArm  27.9101 -40.435 -85.5289
LeftForeArm  67.8309 4.16444 -15.5543
LeftHand  -0.179768 11.613 -2.07539
RightShoulder  3.83505 9.32733 24.3467
RightArm  -16.8755 34.6455 71.6627
RightForeArm  96.622 -3.69079 0.823791
RightHand  0.65997 -10.1577 -16.5679
LeftUpLeg  -97.8425 9.92261 -52.352
LeftLeg  107.449 -1.51106 3.44542
LeftFoot  -32.2078 -0.566179 -4.12862
LeftToes  -1.9349e-011 5.45182e-011 1.33515e-010
1175
root  -55.153 40.9206 78.7139 24.2987 80.1489 35.6073
RightUpLeg  -3.60606 6.1353 -4.42306
RightLeg  38.5478 0.708265 0.332465
RightFoot  -13.6685 0.0450546 6.78134
RightToes  6.35937e-011 1.2921e-014 -6.02303e-014
Spine  17.695 2.34461 1.20704
Spine1  -3.81521 1.19654 0.913669
HEad  -8.44852 31.3325 -19.6839
LeftShoulder1  2.93548 -10.1254 -15.2852
LeftArm  28.1378 -40.3364 -85.5605
LeftForeArm  67.1628 4.13048 -15.6018
LeftHand  -0.147838 11.7486 -1.46011
RightShoulder  3.85766 9.49792 24.1067
RightArm  -16.7042 35.067 70.745
RightForeArm  96.314 -3.7462 1.06564
RightHand  0.672717 -10.1063 -17.0305
LeftUpLeg  -97.3234 9.44983 -52.6462
LeftLeg  105.85 -1.19976 2.8233
LeftFoot  -31.7397 -0.592638 -4.3562
LeftToes  -1.9349e-011 5.45182e-011 1.33515e-010
1176
root  -54.3736 40.4392 78.8323 26.7639 80.748 37.1435
RightUpLeg  -6.36694 8.05912 -4.29482
RightLeg  31.8603 -0.411795 -0.519037
RightFoot  -20.5886 0.510867 8.0344
RightToes  6.35937e-011 1.2921e-014 -6.02303e-014
Spine  19.1744 2.30627 2.09254
Spine1  -3.70551 1.55973 0.233997
HEad  -11.6967 30.3958 -20.7426
LeftShoulder1  2.96681 -10.3307 -15.1757
LeftArm  28.7678 -41.0882 -85.6674
LeftForeArm  65.3119 4.11533 -15.6905
LeftHand  -0.15606 11.958 -1.53368
RightShoulder  3.86157 9.72743 23.5782
RightArm  -16.7865 36.1352 71.315
RightForeArm  96.4323 -3.64944 0.528184
RightHand  0.661895 -10.0381 -17.0107
LeftUpLeg  -97.6731 9.71883 -51.8866
LeftLeg  105.047 -0.995878 2.30413
LeftFoot  -31.3923 -0.634745 -4.65896
LeftToes  -1.9349e-011 5.45182e-011 1.33515e-010
1177
root  -53.516 39.5121 79.0009 29.0867 81.2903 39.0231
RightUpLeg  -9.0857 10.0262 -4.49556
RightLeg  27.2398 -0.849717 -0.702957
RightFoot  -24.9398 0.992175 9.72447
RightToes  6.35937e-011 1.2921e-014 -6.02303e-014
Spine  20.4933 2.29311 2.37003
Spine1  -3.36178 1.83666 0.195086
HEad  -13.7272 30.3301 -21.4442
LeftShoulder1  2.98412 -10.5168 -14.9911
LeftArm  29.454 -41.7565 -85.8062
LeftForeArm  64.4719 4.03391 -15.7688
LeftHand  -0.155999 12.1432 -1.4741
RightShoulder  3.93791 10.0255 23.4835
RightArm  -16.3807 37.196 71.5997
RightForeArm  96.3478 -3.63886 0.44279
RightHand  0.645989 -9.94628 -16.9507
LeftUpLeg  -97.8557 10.4788 -50.7586
LeftLeg  105.029 -1.29476 3.27831
LeftFoot  -31.3733 -0.537083 -4.11051
LeftToes  -1.9349e-011 5.45182e-011 1.33515e-010
1178
root  -52.4956 38.1914 79.2351 35.1246 82.2522 45.4398
RightUpLeg  -10.5162 11.9969 -5.0647
RightLeg  25.1273 1.15548 0.369536
RightFoot  -25.04 1.22656 11.5963
RightToes  6.35937e-011 1.2921e-014 -6.02303e-014
Spine  20.9225 2.22441 2.10106
Spine1  -2.61288 1.76297 0.791936
HEad  -12.4273 31.1339 -20.9873
LeftShoulder1  3.00353 -10.7949 -14.6738
LeftArm  24.4187 -41.6152 -85.7271
LeftForeArm  70.5431 4.9508 -14.9276
LeftHand  -0.189631 12.2016 -2.00578
RightShoulder  4.03235 10.207 23.8034
RightArm  -16.1377 37.6302 71.5839
RightForeArm  96.3621 -3.64648 0.491472
RightHand  0.66018 -10.0678 -16.87
LeftUpLeg  -97.2474 11.0143 -49.2233
LeftLeg  105.891 -2.0886 5.55014
LeftFoot  -31.3931 -0.418663 -3.43784
LeftToes  -1.9349e-011 5.45182e-011 1.33515e-010
1179
root  -51.2796 36.8526 79.534 36.8545 84.0371 48.7572
RightUpLeg  -13.5031 11.0626 -3.28575
RightLeg  34.9032 2.05172 1.27927
RightFoot  -15.6412 0.169673 7.33988
RightToes  6.35937e-011 1.2921e-014 -6.02303e-014
Spine  20.9112 2.61308 3.1599
Spine1  -1.92041 1.63485 2.20005
HEad  -8.89541 32.3949 -19.8673
LeftShoulder1  2.93293 -10.385 -14.8095
LeftArm  26.9983 -42.1362 -87.016
LeftForeArm  71.3672 4.50744 -15.1941
LeftHand  -0.229329 12.5016 -2.51722
RightShoulder  4.03684 10.1167 24.0507
RightArm  -15.2008 37.8458 71.1687
RightForeArm  96.4605 -3.77749 1.29089
RightHand  0.588031 -9.70267 -16.3823
LeftUpLeg  -95.6275 12.5669 -46.3441
LeftLeg  107.568 -2.92753 7.37197
LeftFoot  -31.6228 -0.201538 -2.19272
LeftToes  -1.9349e-011 5.45182e-011 1.33515e-010
1180
root  -50.3278 34.9588 79.785 52.3584 85.7985 67.2272
RightUpLeg  -16.5337 9.0333 -2.23586
RightLeg  51.171 2.71116 3.24741
RightFoot  -24.8739 0.607802 6.54098
RightToes  6.35937e-011 1.2921e-014 -6.02303e-014
Spine  22.903 1.76727 2.64404
Spine1  0.345936 1.14159 1.83013
HEad  -9.63396 34.3224 -20.6824
LeftShoulder1  2.81694 -10.6232 -13.4902
LeftArm  29.4082 -42.753 -87.2364
LeftForeArm  70.1616 4.17039 -15.4501
LeftHand  -0.224246 12.7762 -2.32479
RightShoulder  4.09901 10.0463 24.7086
RightArm  -14.2592 39.1527 71.34
RightForeArm  96.5825 -3.8261 1.61244
RightHand  0.646201 -10.0673 -16.5463
LeftUpLeg  -94.3962 13.3437 -46.6371
LeftLeg  107.826 -5.15687 13.237
LeftFoot  -30.8655 0.0200201 -0.964937
LeftToes  -1.9349e-011 5.45182e-011 1.33515e-010
1181
root  -49.1396 34.0003 80.0223 110.911 84.5309 126.273
RightUpLeg  -16.7278 6.24251 -3.06086
RightLeg  58.3214 0.88887 1.09029
RightFoot  -29.9001 0.699893 5.52581
RightToes  6.35937e-011 1.2921e-014 -6.02303e-014
Spine  20.4881 1.14864 0.666236
Spine1  2.81792 -0.252904 2.98149
HEad  -9.13079 33.9742 -19.8949
LeftShoulder1  2.90778 -10.9593 -13.6654
LeftArm  30.3411 -43.6573 -87.4273
LeftForeArm  68.328 3.94374 -15.6496
LeftHand  -0.207882 12.3963 -2.22329
RightShoulder  4.01056 9.81038 24.5796
RightArm  -14.0973 39.6485 71.1765
RightForeArm  97.2845 -3.78998 1.59316
RightHand  0.587514 -9.81591 -15.9791
LeftUpLeg  -91.7608 12.1519 -49.1845
LeftLeg  106.786 -5.05218 13.7195
LeftFoot  -30.9912 -0.0203291 -1.19607
LeftToes  -1.9349e-011 5.45182e-011 1.33515e-010
